<?xml version="1.0" encoding="iso-8859-1"?>
<!-- Generator: Adobe Illustrator 18.0.0, SVG Export Plug-In . SVG Version: 6.00 Build 0)  -->
<!DOCTYPE svg PUBLIC "-//W3C//DTD SVG 1.1//EN" "http://www.w3.org/Graphics/SVG/1.1/DTD/svg11.dtd">
<svg xmlns="http://www.w3.org/2000/svg" xmlns:xlink="http://www.w3.org/1999/xlink" version="1.1" id="Capa_1" x="0px" y="0px" viewBox="0 0 463.573 463.573" style="enable-background:new 0 0 463.573 463.573;" xml:space="preserve" width="512px" height="512px">
<g>
	<path d="M83.404,329.418c-14.212-24.617-34.181-37.9-45.753-37.9c-0.751,0-1.444,0.057-2.113,0.172   c-1.266,0.202-2.475,0.727-3.501,1.545c-6.141,4.902-5.823,17.638-5.402,22.886c0.688,8.558,3.494,22.2,12.958,38.592   c14.21,24.614,34.18,37.898,45.755,37.9h0.002c0.766,0,1.473-0.059,2.161-0.181c1.253-0.208,2.442-0.734,3.448-1.537   c6.141-4.902,5.824-17.638,5.402-22.886C95.674,359.453,92.868,345.81,83.404,329.418z M81.444,376.461   c-6.399-2.827-18.457-11.225-28.862-29.247c-10.268-17.784-11.754-32.485-11.031-39.545c6.396,2.824,18.454,11.221,28.863,29.249   C80.681,354.701,82.167,369.401,81.444,376.461z" fill="#FFFFFF"/>
	<path d="M463.573,114.255c0-2.68-1.43-5.156-3.751-6.495L307.17,19.649c-2.32-1.339-5.18-1.339-7.498,0L45.248,166.516   c-2.321,1.339-3.75,3.815-3.75,6.495v83.907L19.67,269.722l0.003,0.001C7.053,277.033,0.066,291.727,0,311.108   c-0.061,17.927,5.86,38.112,16.672,56.838C35.001,399.693,62.271,419.1,85.311,419.1c6.401,0,12.476-1.5,17.941-4.648l0,0.002   l19.15-10.937l75.688,40.522c1.107,0.593,2.324,0.888,3.54,0.888c1.296,0,2.589-0.343,3.746-1.011l254.448-146.9   c2.32-1.34,3.75-3.815,3.75-6.495V114.255z M303.421,34.804l137.649,79.452L201.63,252.49L63.997,173.013L303.421,34.804z    M77.921,252.942c15.374-8.875,45.612,5.481,66.119,41.001c9.55,16.542,14.852,34.153,14.928,49.59   c0.069,13.988-4.174,24.163-11.918,28.634l-25.386,14.499c0.865-4.225,1.316-8.786,1.332-13.641   c0.061-17.927-5.86-38.112-16.672-56.838c-10.811-18.726-25.332-33.946-40.887-42.857c-4.242-2.43-8.446-4.327-12.565-5.693   L77.921,252.942z M95.781,401.447c-15.374,8.876-45.611-5.481-66.119-41C20.156,343.98,14.949,326.476,15,311.159   c0.047-13.841,4.385-23.953,12.214-28.473c3.065-1.77,6.605-2.647,10.5-2.647c6.052,0,12.958,2.12,20.266,6.306   c13.291,7.614,25.846,20.875,35.353,37.341c9.507,16.466,14.714,33.97,14.662,49.288   C107.949,386.814,103.611,396.926,95.781,401.447z M194.129,424.906l-56.352-30.17l16.742-9.562   c12.638-7.296,19.545-22.111,19.448-41.715c-0.089-18.003-6.104-38.252-16.938-57.016c-23.429-40.581-61.472-61.001-86.654-46.465   l-13.879,8.141v-62.116l137.632,79.477V424.906z M209.129,424.438V265.48l239.444-138.235v158.947L209.129,424.438z" fill="#FFFFFF"/>
	<path d="M408.939,195.916c-2.32-1.34-5.179-1.339-7.499,0l-152.652,88.111c-2.321,1.34-3.751,3.816-3.751,6.496v58.756   c0,2.679,1.43,5.155,3.75,6.495c1.16,0.67,2.455,1.005,3.75,1.005s2.589-0.335,3.749-1.004l152.652-88.111   c2.321-1.34,3.751-3.816,3.751-6.496v-58.755C412.689,199.732,411.259,197.256,408.939,195.916z M397.689,256.836l-137.652,79.453   v-41.437L397.689,215.4V256.836z" fill="#FFFFFF"/>
</g>
<g>
</g>
<g>
</g>
<g>
</g>
<g>
</g>
<g>
</g>
<g>
</g>
<g>
</g>
<g>
</g>
<g>
</g>
<g>
</g>
<g>
</g>
<g>
</g>
<g>
</g>
<g>
</g>
<g>
</g>
</svg>
