<?xml version="1.0" encoding="iso-8859-1"?>
<!-- Generator: Adobe Illustrator 19.0.0, SVG Export Plug-In . SVG Version: 6.00 Build 0)  -->
<svg xmlns="http://www.w3.org/2000/svg" xmlns:xlink="http://www.w3.org/1999/xlink" version="1.1" id="Capa_1" x="0px" y="0px" viewBox="0 0 512 512" style="enable-background:new 0 0 512 512;" xml:space="preserve" width="512px" height="512px">
<g>
	<g>
		<path d="M424.248,131.799h-22.434v-2.112c0-10.752-8.748-19.5-19.5-19.5h-2.521l0.408-22.296c0.037-2.013-0.737-3.956-2.147-5.393    c-1.41-1.436-3.339-2.245-5.352-2.245H139.298c-4.089,0-7.423,3.274-7.498,7.362l-0.413,22.571h-1.7    c-10.752,0-19.5,8.748-19.5,19.5v2.113H87.75c-4.142,0-7.5,3.357-7.5,7.5v233.4c0,4.143,3.358,7.5,7.5,7.5h22.437v2.113    c0,10.752,8.748,19.5,19.5,19.5h2.112v22.434c0,4.143,3.358,7.5,7.5,7.5h233.403c4.142,0,7.5-3.357,7.5-7.5v-22.434h2.112    c10.752,0,19.5-8.748,19.5-19.5V380.2h22.434c4.142,0,7.5-3.357,7.5-7.5V139.299C431.748,135.156,428.39,131.799,424.248,131.799z     M110.187,365.2H95.25V146.8h14.937V365.2z M146.662,95.253h218.401l-0.273,14.934H146.389L146.662,95.253z M146.798,416.747    v-14.934h218.403v14.934H146.798z M416.747,365.202h-14.934V226.089c0-4.143-3.358-7.5-7.5-7.5c-4.142,0-7.5,3.357-7.5,7.5    v156.225c0,2.481-2.019,4.5-4.5,4.5H129.687c-2.481,0-4.5-2.019-4.5-4.5V129.687c0-2.481,2.019-4.5,4.5-4.5h252.627    c2.481,0,4.499,2.018,4.499,4.5v62.225c0,4.143,3.358,7.5,7.5,7.5c4.142,0,7.5-3.357,7.5-7.5V146.8h14.934V365.202z" fill="#FFFFFF"/>
	</g>
</g>
<g>
	<g>
		<path d="M478.499,0h-266.41c-4.142,0-7.5,3.357-7.5,7.5s3.358,7.5,7.5,7.5h266.41C488.701,15,497,23.3,497,33.501v444.998    C497,488.7,488.701,497,478.499,497H33.501C23.299,497,15,488.7,15,478.499v-53.743c0-4.143-3.358-7.5-7.5-7.5s-7.5,3.357-7.5,7.5    v53.743C0,496.972,15.028,512,33.501,512h444.998C496.972,512,512,496.972,512,478.499V33.501C512,15.028,496.972,0,478.499,0z" fill="#FFFFFF"/>
	</g>
</g>
<g>
	<g>
		<path d="M177.911,0H33.501C15.028,0,0,15.028,0,33.501v357.077c0,4.143,3.358,7.5,7.5,7.5s7.5-3.357,7.5-7.5V33.501    C15,23.3,23.299,15,33.501,15h144.41c4.142,0,7.5-3.357,7.5-7.5S182.053,0,177.911,0z" fill="#FFFFFF"/>
	</g>
</g>
<g>
	<g>
		<path d="M470.054,141.833h-17.333c-4.142,0-7.5,3.357-7.5,7.5s3.358,7.5,7.5,7.5h17.333c4.142,0,7.5-3.357,7.5-7.5    S474.196,141.833,470.054,141.833z" fill="#FFFFFF"/>
	</g>
</g>
<g>
	<g>
		<path d="M470.054,163.167h-17.333c-4.142,0-7.5,3.357-7.5,7.5s3.358,7.5,7.5,7.5h17.333c4.142,0,7.5-3.357,7.5-7.5    S474.196,163.167,470.054,163.167z" fill="#FFFFFF"/>
	</g>
</g>
<g>
	<g>
		<path d="M470.054,184.5h-17.333c-4.142,0-7.5,3.357-7.5,7.5s3.358,7.5,7.5,7.5h17.333c4.142,0,7.5-3.357,7.5-7.5    S474.196,184.5,470.054,184.5z" fill="#FFFFFF"/>
	</g>
</g>
<g>
	<g>
		<path d="M470.054,205.833h-17.333c-4.142,0-7.5,3.357-7.5,7.5s3.358,7.5,7.5,7.5h17.333c4.142,0,7.5-3.357,7.5-7.5    S474.196,205.833,470.054,205.833z" fill="#FFFFFF"/>
	</g>
</g>
<g>
	<g>
		<path d="M470.054,227.167h-17.333c-4.142,0-7.5,3.357-7.5,7.5s3.358,7.5,7.5,7.5h17.333c4.142,0,7.5-3.357,7.5-7.5    S474.196,227.167,470.054,227.167z" fill="#FFFFFF"/>
	</g>
</g>
<g>
	<g>
		<path d="M470.054,248.5h-17.333c-4.142,0-7.5,3.357-7.5,7.5s3.358,7.5,7.5,7.5h17.333c4.142,0,7.5-3.357,7.5-7.5    S474.196,248.5,470.054,248.5z" fill="#FFFFFF"/>
	</g>
</g>
<g>
	<g>
		<path d="M470.054,269.833h-17.333c-4.142,0-7.5,3.357-7.5,7.5s3.358,7.5,7.5,7.5h17.333c4.142,0,7.5-3.357,7.5-7.5    S474.196,269.833,470.054,269.833z" fill="#FFFFFF"/>
	</g>
</g>
<g>
	<g>
		<path d="M470.054,291.167h-17.333c-4.142,0-7.5,3.357-7.5,7.5s3.358,7.5,7.5,7.5h17.333c4.142,0,7.5-3.357,7.5-7.5    S474.196,291.167,470.054,291.167z" fill="#FFFFFF"/>
	</g>
</g>
<g>
	<g>
		<path d="M470.054,312.5h-17.333c-4.142,0-7.5,3.357-7.5,7.5s3.358,7.5,7.5,7.5h17.333c4.142,0,7.5-3.357,7.5-7.5    S474.196,312.5,470.054,312.5z" fill="#FFFFFF"/>
	</g>
</g>
<g>
	<g>
		<path d="M470.054,333.833h-17.333c-4.142,0-7.5,3.357-7.5,7.5s3.358,7.5,7.5,7.5h17.333c4.142,0,7.5-3.357,7.5-7.5    S474.196,333.833,470.054,333.833z" fill="#FFFFFF"/>
	</g>
</g>
<g>
	<g>
		<path d="M470.054,355.167h-17.333c-4.142,0-7.5,3.357-7.5,7.5s3.358,7.5,7.5,7.5h17.333c4.142,0,7.5-3.357,7.5-7.5    S474.196,355.167,470.054,355.167z" fill="#FFFFFF"/>
	</g>
</g>
<g>
	<g>
		<path d="M59.279,141.833H41.946c-4.142,0-7.5,3.357-7.5,7.5s3.358,7.5,7.5,7.5h17.333c4.142,0,7.5-3.357,7.5-7.5    S63.421,141.833,59.279,141.833z" fill="#FFFFFF"/>
	</g>
</g>
<g>
	<g>
		<path d="M59.279,163.167H41.946c-4.142,0-7.5,3.357-7.5,7.5s3.358,7.5,7.5,7.5h17.333c4.142,0,7.5-3.357,7.5-7.5    S63.421,163.167,59.279,163.167z" fill="#FFFFFF"/>
	</g>
</g>
<g>
	<g>
		<path d="M59.279,184.5H41.946c-4.142,0-7.5,3.357-7.5,7.5s3.358,7.5,7.5,7.5h17.333c4.142,0,7.5-3.357,7.5-7.5    S63.421,184.5,59.279,184.5z" fill="#FFFFFF"/>
	</g>
</g>
<g>
	<g>
		<path d="M59.279,205.833H41.946c-4.142,0-7.5,3.357-7.5,7.5s3.358,7.5,7.5,7.5h17.333c4.142,0,7.5-3.357,7.5-7.5    S63.421,205.833,59.279,205.833z" fill="#FFFFFF"/>
	</g>
</g>
<g>
	<g>
		<path d="M59.279,227.167H41.946c-4.142,0-7.5,3.357-7.5,7.5s3.358,7.5,7.5,7.5h17.333c4.142,0,7.5-3.357,7.5-7.5    S63.421,227.167,59.279,227.167z" fill="#FFFFFF"/>
	</g>
</g>
<g>
	<g>
		<path d="M59.279,248.5H41.946c-4.142,0-7.5,3.357-7.5,7.5s3.358,7.5,7.5,7.5h17.333c4.142,0,7.5-3.357,7.5-7.5    S63.421,248.5,59.279,248.5z" fill="#FFFFFF"/>
	</g>
</g>
<g>
	<g>
		<path d="M59.279,269.833H41.946c-4.142,0-7.5,3.357-7.5,7.5s3.358,7.5,7.5,7.5h17.333c4.142,0,7.5-3.357,7.5-7.5    S63.421,269.833,59.279,269.833z" fill="#FFFFFF"/>
	</g>
</g>
<g>
	<g>
		<path d="M59.279,291.167H41.946c-4.142,0-7.5,3.357-7.5,7.5s3.358,7.5,7.5,7.5h17.333c4.142,0,7.5-3.357,7.5-7.5    S63.421,291.167,59.279,291.167z" fill="#FFFFFF"/>
	</g>
</g>
<g>
	<g>
		<path d="M59.279,312.5H41.946c-4.142,0-7.5,3.357-7.5,7.5s3.358,7.5,7.5,7.5h17.333c4.142,0,7.5-3.357,7.5-7.5    S63.421,312.5,59.279,312.5z" fill="#FFFFFF"/>
	</g>
</g>
<g>
	<g>
		<path d="M59.279,333.833H41.946c-4.142,0-7.5,3.357-7.5,7.5s3.358,7.5,7.5,7.5h17.333c4.142,0,7.5-3.357,7.5-7.5    S63.421,333.833,59.279,333.833z" fill="#FFFFFF"/>
	</g>
</g>
<g>
	<g>
		<path d="M59.279,355.167H41.946c-4.142,0-7.5,3.357-7.5,7.5s3.358,7.5,7.5,7.5h17.333c4.142,0,7.5-3.357,7.5-7.5    S63.421,355.167,59.279,355.167z" fill="#FFFFFF"/>
	</g>
</g>
<g>
	<g>
		<path d="M362.667,445.221c-4.142,0-7.5,3.357-7.5,7.5v17.334c0,4.143,3.358,7.5,7.5,7.5c4.142,0,7.5-3.357,7.5-7.5v-17.334    C370.167,448.578,366.809,445.221,362.667,445.221z" fill="#FFFFFF"/>
	</g>
</g>
<g>
	<g>
		<path d="M341.333,445.221c-4.142,0-7.5,3.357-7.5,7.5v17.334c0,4.143,3.358,7.5,7.5,7.5c4.142,0,7.5-3.357,7.5-7.5v-17.334    C348.833,448.578,345.475,445.221,341.333,445.221z" fill="#FFFFFF"/>
	</g>
</g>
<g>
	<g>
		<path d="M320,445.221c-4.142,0-7.5,3.357-7.5,7.5v17.334c0,4.143,3.358,7.5,7.5,7.5c4.142,0,7.5-3.357,7.5-7.5v-17.334    C327.5,448.578,324.142,445.221,320,445.221z" fill="#FFFFFF"/>
	</g>
</g>
<g>
	<g>
		<path d="M298.667,445.221c-4.142,0-7.5,3.357-7.5,7.5v17.334c0,4.143,3.358,7.5,7.5,7.5c4.142,0,7.5-3.357,7.5-7.5v-17.334    C306.167,448.578,302.809,445.221,298.667,445.221z" fill="#FFFFFF"/>
	</g>
</g>
<g>
	<g>
		<path d="M277.333,445.221c-4.142,0-7.5,3.357-7.5,7.5v17.334c0,4.143,3.358,7.5,7.5,7.5c4.142,0,7.5-3.357,7.5-7.5v-17.334    C284.833,448.578,281.475,445.221,277.333,445.221z" fill="#FFFFFF"/>
	</g>
</g>
<g>
	<g>
		<path d="M256,445.221c-4.142,0-7.5,3.357-7.5,7.5v17.334c0,4.143,3.358,7.5,7.5,7.5c4.142,0,7.5-3.357,7.5-7.5v-17.334    C263.5,448.578,260.142,445.221,256,445.221z" fill="#FFFFFF"/>
	</g>
</g>
<g>
	<g>
		<path d="M234.667,445.221c-4.142,0-7.5,3.357-7.5,7.5v17.334c0,4.143,3.358,7.5,7.5,7.5c4.142,0,7.5-3.357,7.5-7.5v-17.334    C242.167,448.578,238.809,445.221,234.667,445.221z" fill="#FFFFFF"/>
	</g>
</g>
<g>
	<g>
		<path d="M213.333,445.221c-4.142,0-7.5,3.357-7.5,7.5v17.334c0,4.143,3.358,7.5,7.5,7.5c4.142,0,7.5-3.357,7.5-7.5v-17.334    C220.833,448.578,217.475,445.221,213.333,445.221z" fill="#FFFFFF"/>
	</g>
</g>
<g>
	<g>
		<path d="M192,445.221c-4.142,0-7.5,3.357-7.5,7.5v17.334c0,4.143,3.358,7.5,7.5,7.5c4.142,0,7.5-3.357,7.5-7.5v-17.334    C199.5,448.578,196.142,445.221,192,445.221z" fill="#FFFFFF"/>
	</g>
</g>
<g>
	<g>
		<path d="M170.667,445.221c-4.142,0-7.5,3.357-7.5,7.5v17.334c0,4.143,3.358,7.5,7.5,7.5c4.142,0,7.5-3.357,7.5-7.5v-17.334    C178.167,448.578,174.809,445.221,170.667,445.221z" fill="#FFFFFF"/>
	</g>
</g>
<g>
	<g>
		<path d="M149.333,445.221c-4.142,0-7.5,3.357-7.5,7.5v17.334c0,4.143,3.358,7.5,7.5,7.5c4.142,0,7.5-3.357,7.5-7.5v-17.334    C156.833,448.578,153.475,445.221,149.333,445.221z" fill="#FFFFFF"/>
	</g>
</g>
<g>
	<g>
		<path d="M362.667,34.445c-4.142,0-7.5,3.357-7.5,7.5v17.334c0,4.143,3.358,7.5,7.5,7.5c4.142,0,7.5-3.357,7.5-7.5V41.945    C370.167,37.802,366.809,34.445,362.667,34.445z" fill="#FFFFFF"/>
	</g>
</g>
<g>
	<g>
		<path d="M341.333,34.445c-4.142,0-7.5,3.357-7.5,7.5v17.334c0,4.143,3.358,7.5,7.5,7.5c4.142,0,7.5-3.357,7.5-7.5V41.945    C348.833,37.802,345.475,34.445,341.333,34.445z" fill="#FFFFFF"/>
	</g>
</g>
<g>
	<g>
		<path d="M320,34.445c-4.142,0-7.5,3.357-7.5,7.5v17.334c0,4.143,3.358,7.5,7.5,7.5c4.142,0,7.5-3.357,7.5-7.5V41.945    C327.5,37.802,324.142,34.445,320,34.445z" fill="#FFFFFF"/>
	</g>
</g>
<g>
	<g>
		<path d="M298.667,34.445c-4.142,0-7.5,3.357-7.5,7.5v17.334c0,4.143,3.358,7.5,7.5,7.5c4.142,0,7.5-3.357,7.5-7.5V41.945    C306.167,37.802,302.809,34.445,298.667,34.445z" fill="#FFFFFF"/>
	</g>
</g>
<g>
	<g>
		<path d="M277.333,34.445c-4.142,0-7.5,3.357-7.5,7.5v17.334c0,4.143,3.358,7.5,7.5,7.5c4.142,0,7.5-3.357,7.5-7.5V41.945    C284.833,37.802,281.475,34.445,277.333,34.445z" fill="#FFFFFF"/>
	</g>
</g>
<g>
	<g>
		<path d="M256,34.445c-4.142,0-7.5,3.357-7.5,7.5v17.334c0,4.143,3.358,7.5,7.5,7.5c4.142,0,7.5-3.357,7.5-7.5V41.945    C263.5,37.802,260.142,34.445,256,34.445z" fill="#FFFFFF"/>
	</g>
</g>
<g>
	<g>
		<path d="M234.667,34.445c-4.142,0-7.5,3.357-7.5,7.5v17.334c0,4.143,3.358,7.5,7.5,7.5c4.142,0,7.5-3.357,7.5-7.5V41.945    C242.167,37.802,238.809,34.445,234.667,34.445z" fill="#FFFFFF"/>
	</g>
</g>
<g>
	<g>
		<path d="M213.333,34.445c-4.142,0-7.5,3.357-7.5,7.5v17.334c0,4.143,3.358,7.5,7.5,7.5c4.142,0,7.5-3.357,7.5-7.5V41.945    C220.833,37.802,217.475,34.445,213.333,34.445z" fill="#FFFFFF"/>
	</g>
</g>
<g>
	<g>
		<path d="M192,34.445c-4.142,0-7.5,3.357-7.5,7.5v17.334c0,4.143,3.358,7.5,7.5,7.5c4.142,0,7.5-3.357,7.5-7.5V41.945    C199.5,37.802,196.142,34.445,192,34.445z" fill="#FFFFFF"/>
	</g>
</g>
<g>
	<g>
		<path d="M170.667,34.445c-4.142,0-7.5,3.357-7.5,7.5v17.334c0,4.143,3.358,7.5,7.5,7.5c4.142,0,7.5-3.357,7.5-7.5V41.945    C178.167,37.802,174.809,34.445,170.667,34.445z" fill="#FFFFFF"/>
	</g>
</g>
<g>
	<g>
		<path d="M149.333,34.445c-4.142,0-7.5,3.357-7.5,7.5v17.334c0,4.143,3.358,7.5,7.5,7.5c4.142,0,7.5-3.357,7.5-7.5V41.945    C156.833,37.802,153.475,34.445,149.333,34.445z" fill="#FFFFFF"/>
	</g>
</g>
<g>
	<g>
		<path d="M437.782,54.313c-10.976,0-19.905,8.93-19.905,19.905c0,10.975,8.93,19.905,19.905,19.905    c10.976,0,19.906-8.93,19.906-19.905C457.688,63.243,448.758,54.313,437.782,54.313z M437.782,79.123    c-2.705,0-4.905-2.2-4.905-4.905c0-2.705,2.201-4.905,4.905-4.905c2.705,0,4.906,2.2,4.906,4.905    C442.688,76.923,440.487,79.123,437.782,79.123z" fill="#FFFFFF"/>
	</g>
</g>
<g>
	<g>
		<path d="M74.218,417.878c-10.976,0-19.906,8.93-19.906,19.905c0,10.975,8.93,19.905,19.906,19.905s19.905-8.93,19.905-19.905    C94.123,426.808,85.193,417.878,74.218,417.878z M74.218,442.687c-2.705,0-4.906-2.2-4.906-4.905c0-2.705,2.201-4.905,4.906-4.905    s4.905,2.2,4.905,4.905C79.123,440.487,76.922,442.687,74.218,442.687z" fill="#FFFFFF"/>
	</g>
</g>
<g>
</g>
<g>
</g>
<g>
</g>
<g>
</g>
<g>
</g>
<g>
</g>
<g>
</g>
<g>
</g>
<g>
</g>
<g>
</g>
<g>
</g>
<g>
</g>
<g>
</g>
<g>
</g>
<g>
</g>
</svg>
